<svg width="41" height="40" viewBox="0 0 41 40" fill="none" xmlns="http://www.w3.org/2000/svg">
<path fill-rule="evenodd" clip-rule="evenodd" d="M20.5 0C31.5457 0 40.5 8.9543 40.5 20C40.5 31.0457 31.5457 40 20.5 40C9.4543 40 0.5 31.0457 0.5 20C0.5 8.9543 9.4543 0 20.5 0ZM19.7771 1.49659C17.4955 1.81769 15.3229 3.65108 13.6364 6.7174C13.1472 7.60683 12.7058 8.58946 12.3211 9.65044C14.6143 9.07417 17.1334 8.73442 19.7771 8.68187V1.49659ZM10.6308 10.1308C11.1091 8.62958 11.6943 7.2484 12.3696 6.02065C13.2056 4.50059 14.1978 3.18795 15.3157 2.17977C9.23679 3.94523 4.44522 8.73679 2.67977 14.8157C3.68794 13.6978 5.00059 12.7056 6.52065 11.8696C7.7484 11.1943 9.12957 10.6091 10.6308 10.1308ZM10.1504 11.8211C9.57416 14.1143 9.23442 16.6334 9.18187 19.2771H1.99658C2.31769 16.9954 4.15108 14.8228 7.2174 13.1364C8.10683 12.6472 9.08946 12.2058 10.1504 11.8211ZM10.628 19.2771C10.6877 16.392 11.103 13.6834 11.7902 11.2902C14.1834 10.603 16.8921 10.1876 19.7771 10.1279V13.2508C18.7008 16.0062 16.5056 18.2012 13.7501 19.2771H10.628ZM9.18187 20.7229H1.99658C2.31769 23.0046 4.15108 25.1771 7.2174 26.8636C8.10683 27.3528 9.08946 27.7942 10.1504 28.1789C9.57416 25.8857 9.23442 23.3666 9.18187 20.7229ZM11.7902 28.7098C11.103 26.3166 10.6877 23.608 10.628 20.7229H13.7501C16.5056 21.7988 18.7009 23.9938 19.7771 26.7492V29.8721C16.8921 29.8124 14.1834 29.397 11.7902 28.7098ZM10.6308 29.8692C9.12957 29.3909 7.7484 28.8057 6.52065 28.1304C5.00059 27.2944 3.68794 26.3022 2.67977 25.1843C4.44522 31.2632 9.23679 36.0548 15.3157 37.8202C14.1978 36.812 13.2056 35.4994 12.3696 33.9793C11.6943 32.7516 11.1091 31.3704 10.6308 29.8692ZM19.7771 38.5034C17.4955 38.1823 15.3229 36.3489 13.6364 33.2826C13.1472 32.3932 12.7058 31.4105 12.3211 30.3496C14.6143 30.9258 17.1334 31.2656 19.7771 31.3181V38.5034ZM25.6843 37.8202C26.8022 36.812 27.7944 35.4994 28.6305 33.9793C29.3057 32.7516 29.8909 31.3704 30.3692 29.8692C31.8704 29.3909 33.2516 28.8057 34.4794 28.1304C35.9994 27.2944 37.3121 26.3022 38.3202 25.1843C36.5548 31.2632 31.7632 36.0548 25.6843 37.8202ZM28.6789 30.3496C28.2942 31.4105 27.8528 32.3932 27.3636 33.2826C25.6772 36.3489 23.5046 38.1823 21.2229 38.5034V31.3181C23.8666 31.2656 26.3857 30.9258 28.6789 30.3496ZM30.8496 28.1789C31.9105 27.7942 32.8932 27.3528 33.7826 26.8636C36.8489 25.1771 38.6823 23.0046 39.0034 20.7229H31.8181C31.7656 23.3666 31.4258 25.8857 30.8496 28.1789ZM30.3721 20.7229C30.3124 23.608 29.897 26.3166 29.2098 28.7098C26.8166 29.397 24.108 29.8124 21.2229 29.8721V26.7515C22.2988 23.9951 24.4945 21.7991 27.2508 20.7229H30.3721ZM31.8181 19.2771H39.0034C38.6823 16.9954 36.8489 14.8228 33.7826 13.1364C32.8932 12.6472 31.9105 12.2058 30.8496 11.8211C31.4258 14.1143 31.7656 16.6334 31.8181 19.2771ZM29.2098 11.2902C29.897 13.6834 30.3124 16.392 30.3721 19.2771H27.2508C24.4945 18.2009 22.2988 16.0049 21.2229 13.2485V10.1279C24.108 10.1876 26.8166 10.603 29.2098 11.2902ZM30.3692 10.1308C31.8704 10.6091 33.2516 11.1943 34.4794 11.8696C35.9994 12.7056 37.3121 13.6978 38.3202 14.8157C36.5548 8.73679 31.7632 3.94523 25.6843 2.17977C26.8022 3.18795 27.7944 4.50059 28.6305 6.02065C29.3057 7.2484 29.8909 8.62958 30.3692 10.1308ZM21.2229 1.49659C23.5046 1.81769 25.6772 3.65108 27.3636 6.7174C27.8528 7.60684 28.2942 8.58946 28.6789 9.65044C26.3857 9.07417 23.8666 8.73442 21.2229 8.68187V1.49659Z" fill="white"/>
</svg>
